<?xml version="1.0" encoding="utf-8"?>
<svg viewBox="3.000009775161743 22.700002670288086 290.2999572753906 302.7999267578125" width="290.2999572753906" height="302.7999267578125" xmlns="http://www.w3.org/2000/svg"><g transform="matrix(1, 0, 0, 1, 0, 1.4210854715202004e-14)"><path class="st0" d="M199.2,133.8C139.3,49.4,65.6,116,89.4,142.8c22.5,25.3,24.7,73.4-11,89.4C40.8,249,3,240.2,13,204.1&#10;&#9;&#9;c8.9-32.2,119,4.9,120-32.3c1.1-41.8,102.2-16.2,88.6-80.9c-5.3-25.2-136.3-68.2-83.4,10.5" style="fill: none; stroke: rgb(255, 221, 0); stroke-width: 0.35;" transform="matrix(1, 0, 0, 1, 0, 1.4210854715202004e-14)"/><path class="st1" d="M139.3,103.2c-51.9-77,76.6-34,81.9-8.9c4.9,23.2-5,34.7-19.5,41.9c-25.6,12.6-66.1,11.8-66.5,37.8&#10;&#9;&#9;c-0.4,26.3-57.2,14.1-92.1,17.3c-13.3,1.2-23.4,4.7-25.9,13.4c-10.1,35.4,26.8,44,63.5,27.6c19.8-8.9,27.6-28,26.4-47.4&#10;&#9;&#9;c-0.9-14.6-6.8-29.4-16.4-40c-23.8-26.1,48.1-91.5,106.7-9" style="fill: none; stroke: rgb(255, 219, 0); stroke-width: 0.35;" transform="matrix(1, 0, 0, 1, 0, 1.4210854715202004e-14)"/><path class="st188" d="M140.4,105c-50.9-75.2,75.2-32.4,80.4-7.4c4.8,23-4.8,34.4-18.8,41.5c-24.9,12.5-64.4,11.6-64.7,37&#10;&#9;&#9;c-0.2,25.6-55.9,13.2-90.4,16.1c-13.2,1.1-23.2,4.5-25.7,13C11,239.9,47,248.3,82.7,232.3c19.4-8.7,26.8-27.4,25.5-46.3&#10;&#9;&#9;c-1-14.3-6.8-28.7-16.5-39c-23.8-25.4,46.2-89.6,103.5-9" style="fill: none; stroke: rgb(255, 217, 0); stroke-width: 0.35;" transform="matrix(1, 0, 0, 1, 0, 1.4210854715202004e-14)"/><path class="st189" d="M141.5,106.8c-49.9-73.5,73.7-30.8,79-5.8c4.8,22.7-4.5,34.1-18.2,41.1c-24.1,12.4-62.8,11.4-62.8,36.2&#10;&#9;&#9;c0,24.9-54.6,12.3-88.7,15c-13,1-22.9,4.2-25.5,12.5C15,239.7,50.2,248,84.9,232.4c18.9-8.4,26-26.7,24.6-45.2&#10;&#9;&#9;c-1.1-13.9-6.9-28.1-16.6-38.1c-23.8-24.7,44.4-87.7,100.3-9" style="fill: none; stroke: rgb(255, 215, 0); stroke-width: 0.35;" transform="matrix(1, 0, 0, 1, 0, 1.4210854715202004e-14)"/><path class="st190" d="M142.6,108.7c-48.9-71.7,72.2-29.2,77.5-4.2c4.7,22.5-4.3,33.8-17.5,40.8c-23.4,12.3-61.2,11.2-60.9,35.4&#10;&#9;&#9;c0.2,24.2-53.2,11.4-87,13.8c-12.8,0.9-22.7,4-25.2,12.1c-10.5,33.1,23.8,41.2,57.7,26c18.4-8.2,25.2-26.1,23.6-44.1&#10;&#9;&#9;c-1.2-13.6-7-27.4-16.6-37.2c-23.8-24.1,42.5-85.8,97.1-9" style="fill: none; stroke: rgb(255, 213, 0); stroke-width: 0.35;" transform="matrix(1, 0, 0, 1, 0, 1.4210854715202004e-14)"/><path class="st191" d="M143.8,110.5c-47.9-70,70.7-27.6,76-2.7c4.7,22.2-4.1,33.5-16.9,40.4c-22.7,12.2-59.5,11-59,34.6&#10;&#9;&#9;c0.5,23.6-51.9,10.6-85.2,12.6c-12.7,0.8-22.4,3.8-25,11.7c-10.6,32.3,22.8,40.3,55.7,25.5c17.9-8,24.4-25.5,22.7-43&#10;&#9;&#9;c-1.2-13.2-7.1-26.8-16.7-36.2c-23.8-23.4,40.7-83.9,94-9" style="fill: none; stroke: rgb(255, 211, 0); stroke-width: 0.35;" transform="matrix(1, 0, 0, 1, 0, 1.4210854715202004e-14)"/><path class="st192" d="M144.9,112.3c-46.9-68.3,69.3-26,74.5-1.1c4.6,22-3.9,33.2-16.2,40c-21.9,12.1-57.9,10.8-57.2,33.8&#10;&#9;&#9;c0.7,22.9-50.5,9.7-83.5,11.4c-12.5,0.7-22.2,3.5-24.8,11.2c-10.7,31.5,21.8,39.4,53.8,25c17.4-7.8,23.6-24.8,21.8-41.9&#10;&#9;&#9;c-1.4-12.9-7.2-26.1-16.8-35.3c-23.9-22.8,38.8-82,90.8-9" style="fill: none; stroke: rgb(255, 209, 0); stroke-width: 0.35;" transform="matrix(1, 0, 0, 1, 0, 1.4210854715202004e-14)"/><path class="st193" d="M146,114.1c-45.9-66.5,67.8-24.4,73,0.4c4.6,21.8-3.7,32.9-15.6,39.6c-21.2,12-56.2,10.6-55.3,33&#10;&#9;&#9;c0.9,22.2-49.2,8.8-81.8,10.3c-12.4,0.6-21.9,3.3-24.6,10.8C31,239,62.6,246.7,93.6,232.7c16.9-7.6,22.8-24.2,20.9-40.7&#10;&#9;&#9;c-1.5-12.5-7.2-25.5-16.8-34.4c-23.9-22.1,36.9-80.2,87.6-9" style="fill: none; stroke: rgb(255, 206, 1); stroke-width: 0.35;" transform="matrix(1, 0, 0, 1, 0, 1.4210854715202004e-14)"/><path class="st194" d="M147.1,115.9c-45-64.8,66.3-22.8,71.5,2c4.5,21.5-3.5,32.6-14.9,39.2c-20.4,11.9-54.6,10.4-53.4,32.2&#10;&#9;&#9;c1.2,21.6-47.9,7.9-80,9.1c-12.2,0.4-21.7,3.1-24.4,10.4c-10.9,30,19.8,37.5,49.9,24c16.4-7.4,22-23.5,19.9-39.6&#10;&#9;&#9;c-1.6-12.2-7.3-24.8-16.9-33.4c-23.9-21.5,35.1-78.3,84.4-9" style="fill: none; stroke: rgb(255, 204, 3); stroke-width: 0.35;" transform="matrix(1, 0, 0, 1, 0, 1.4210854715202004e-14)"/><path class="st195" d="M148.3,117.7c-44-63.1,64.8-21.2,70,3.5c4.5,21.3-3.3,32.3-14.3,38.9c-19.7,11.8-53,10.2-51.5,31.4&#10;&#9;&#9;c1.4,20.9-46.5,7.1-78.3,7.9c-12,0.3-21.5,2.8-24.2,10c-11.1,29.2,18.8,36.6,48,23.5c15.9-7.2,21.2-22.9,19-38.5&#10;&#9;&#9;c-1.7-11.8-7.4-24.2-17-32.5c-23.9-20.8,33.2-76.4,81.3-9" style="fill: none; stroke: rgb(255, 202, 6); stroke-width: 0.35;" transform="matrix(1, 0, 0, 1, 0, 1.4210854715202004e-14)"/><path class="st196" d="M149.4,119.6c-43-61.3,63.3-19.6,68.5,5.1c4.4,21-3,32-13.6,38.5c-18.9,11.7-51.3,10-49.7,30.6&#10;&#9;&#9;c1.6,20.2-45.2,6.2-76.6,6.8c-11.9,0.2-21.2,2.6-23.9,9.5C43,238.5,72,245.7,100.2,233c15.4-6.9,20.4-22.3,18.1-37.4&#10;&#9;&#9;c-1.8-11.5-7.5-23.5-17-31.6c-24-20.2,31.4-74.5,78.1-9" style="fill: none; stroke: rgb(255, 200, 8); stroke-width: 0.35;" transform="matrix(1, 0, 0, 1, 0, 1.4210854715202004e-14)"/><path class="st197" d="M150.5,121.4c-42-59.6,61.9-18,67,6.6c4.4,20.8-2.8,31.7-12.9,38.1c-18.2,11.6-49.7,9.8-47.8,29.8&#10;&#9;&#9;c1.9,19.6-43.8,5.3-74.9,5.6c-11.7,0.1-21,2.3-23.7,9.1c-11.3,27.7,16.8,34.8,44.1,22.5c14.9-6.7,19.6-21.6,17.2-36.3&#10;&#9;&#9;c-1.9-11.1-7.6-22.9-17.1-30.6c-24-19.5,29.5-72.6,74.9-9" style="fill: none; stroke: rgb(255, 198, 10); stroke-width: 0.35;" transform="matrix(1, 0, 0, 1, 0, 1.4210854715202004e-14)"/><path class="st198" d="M151.7,123.2c-41-57.8,60.4-16.4,65.5,8.2c4.3,20.6-2.6,31.4-12.3,37.7c-17.4,11.5-48.1,9.6-45.9,29&#10;&#9;&#9;c2.1,18.9-42.5,4.4-73.1,4.4c-11.5,0-20.7,2.1-23.5,8.7c-11.4,26.9,15.8,33.9,42.2,21.9c14.4-6.5,18.8-21,16.2-35.2&#10;&#9;&#9;c-2-10.8-7.7-22.3-17.2-29.7c-24.1-18.9,27.7-70.7,71.7-9" style="fill: none; stroke: rgb(255, 196, 12); stroke-width: 0.35;" transform="matrix(1, 0, 0, 1, 0, 1.4210854715202004e-14)"/><path class="st199" d="M152.8,125c-40-56.1,58.9-14.8,64,9.7c4.3,20.3-2.4,31.1-11.6,37.4c-16.7,11.4-46.4,9.5-44,28.2&#10;&#9;&#9;c2.3,18.2-41.2,3.6-71.4,3.3c-11.4-0.1-20.5,1.9-23.3,8.2c-11.5,26.1,14.8,33,40.2,21.4c13.9-6.3,18-20.3,15.3-34.1&#10;&#9;&#9;c-2.1-10.4-7.8-21.6-17.2-28.8c-24.1-18.3,25.8-68.8,68.6-9" style="fill: none; stroke: rgb(255, 194, 14); stroke-width: 0.35;" transform="matrix(1, 0, 0, 1, 0, 1.4210854715202004e-14)"/><path class="st200" d="M153.9,126.8c-39-54.4,57.4-13.2,62.6,11.3c4.2,20.1-2.2,30.8-11,37c-15.9,11.3-44.8,9.3-42.2,27.4&#10;&#9;&#9;c2.5,17.6-39.8,2.7-69.7,2.1c-11.2-0.2-20.2,1.6-23.1,7.8c-11.6,25.3,13.8,32,38.3,20.9c13.4-6.1,17.3-19.7,14.4-33&#10;&#9;&#9;c-2.2-10.1-7.9-21-17.3-27.8c-24.2-17.6,24-66.9,65.4-9.1" style="fill: none; stroke: rgb(254, 191, 15); stroke-width: 0.35;" transform="matrix(1, 0, 0, 1, 0, 1.4210854715202004e-14)"/><path class="st201" d="M155,128.7c-38-52.6,56-11.6,61.1,12.9c4.2,19.8-2,30.5-10.3,36.6c-15.2,11.2-43.1,9.1-40.3,26.6&#10;&#9;&#9;c2.8,16.9-38.5,1.8-67.9,0.9c-11-0.3-20,1.4-22.8,7.4c-11.8,24.5,12.8,31.1,36.4,20.4c12.9-5.9,16.5-19,13.5-31.9&#10;&#9;&#9;c-2.3-9.8-8-20.3-17.4-26.9c-24.2-17,22.1-65,62.2-9.1" style="fill: none; stroke: rgb(254, 189, 17); stroke-width: 0.35;" transform="matrix(1, 0, 0, 1, 0, 1.4210854715202004e-14)"/><path class="st202" d="M156.2,130.5c-37-50.9,54.5-10,59.6,14.4c4.1,19.6-1.7,30.1-9.7,36.2c-14.4,11.1-41.5,8.9-38.4,25.8&#10;&#9;&#9;c3,16.3-37.1,1-66.2-0.3c-10.9-0.5-19.7,1.1-22.6,6.9c-11.9,23.7,11.8,30.2,34.4,19.9c12.4-5.7,15.7-18.4,12.5-30.8&#10;&#9;&#9;c-2.4-9.4-8.1-19.7-17.4-26c-24.3-16.3,20.3-63.1,59-9.1" style="fill: none; stroke: rgb(254, 187, 18); stroke-width: 0.35;" transform="matrix(1, 0, 0, 1, 0, 1.4210854715202004e-14)"/><path class="st203" d="M157.3,132.3c-36-49.2,53-8.4,58.1,16c4.1,19.4-1.5,29.8-9,35.9c-13.7,11-39.9,8.7-36.5,25&#10;&#9;&#9;c3.2,15.6-35.8,0.1-64.5-1.4c-10.7-0.6-19.5,0.9-22.4,6.5c-12,22.9,10.8,29.3,32.5,19.4c11.9-5.4,14.9-17.8,11.6-29.7&#10;&#9;&#9;c-2.5-9.1-8.2-19-17.5-25c-24.4-15.7,18.4-61.2,55.9-9.1" style="fill: none; stroke: rgb(253, 185, 19); stroke-width: 0.35;" transform="matrix(1, 0, 0, 1, 0, 1.4210854715202004e-14)"/><path class="st204" d="M158.4,134.1c-35-47.4,51.5-6.8,56.6,17.5c4,19.1-1.3,29.5-8.4,35.5c-12.9,10.9-38.3,8.6-34.7,24.2&#10;&#9;&#9;c3.5,15-34.5-0.8-62.8-2.6c-10.6-0.7-19.2,0.7-22.2,6.1c-12.1,22.2,9.8,28.4,30.6,18.9c11.4-5.2,14.1-17.1,10.7-28.6&#10;&#9;&#9;c-2.6-8.7-8.3-18.4-17.5-24.1c-24.4-15.1,16.6-59.3,52.7-9.1" style="fill: none; stroke: rgb(253, 183, 20); stroke-width: 0.35;" transform="matrix(1, 0, 0, 1, 0, 1.4210854715202004e-14)"/><path class="st205" d="M159.5,135.9c-34-45.7,50-5.2,55.1,19.1c4,18.9-1.1,29.2-7.7,35.1c-12.2,10.7-36.6,8.4-32.8,23.4&#10;&#9;&#9;c3.7,14.3-33.1-1.7-61-3.8c-10.4-0.8-19,0.4-22,5.6c-12.2,21.4,8.8,27.5,28.6,18.4c10.9-5,13.3-16.5,9.8-27.5&#10;&#9;&#9;c-2.7-8.4-8.4-17.7-17.6-23.2c-24.5-14.4,14.7-57.4,49.5-9.1" style="fill: none; stroke: rgb(252, 180, 21); stroke-width: 0.35;" transform="matrix(1, 0, 0, 1, 0, 1.4210854715202004e-14)"/><path class="st206" d="M160.7,137.8c-33-43.9,48.6-3.6,53.6,20.6c3.9,18.6-0.8,28.9-7,34.7c-11.4,10.6-35,8.2-30.9,22.6&#10;&#9;&#9;c3.9,13.7-31.8-2.5-59.3-4.9c-10.2-0.9-18.7,0.2-21.7,5.2c-12.3,20.6,7.8,26.5,26.7,17.8c10.4-4.8,12.5-15.8,8.8-26.3&#10;&#9;&#9;c-2.8-8-8.5-17.1-17.7-22.2c-24.6-13.8,12.9-55.5,46.3-9.1" style="fill: none; stroke: rgb(252, 178, 22); stroke-width: 0.35;" transform="matrix(1, 0, 0, 1, 0, 1.4210854715202004e-14)"/><path class="st207" d="M161.8,139.6c-32-42.2,47.1-2,52.1,22.2c3.9,18.4-0.6,28.6-6.4,34.3c-10.6,10.5-33.4,8.1-29,21.8&#10;&#9;&#9;c4.1,13.1-30.4-3.4-57.6-6.1c-10.1-1-18.5-0.1-21.5,4.8c-12.4,19.8,6.8,25.6,24.7,17.3c9.9-4.6,11.7-15.2,7.9-25.2&#10;&#9;&#9;c-2.9-7.7-8.6-16.4-17.7-21.3c-24.7-13.2,11-53.6,43.2-9.1" style="fill: none; stroke: rgb(252, 176, 23); stroke-width: 0.35;" transform="matrix(1, 0, 0, 1, 0, 1.4210854715202004e-14)"/><path class="st208" d="M162.9,141.4c-31-40.5,45.6-0.4,50.6,23.7c3.8,18.2-0.4,28.3-5.7,34c-9.9,10.4-31.7,7.9-27.2,21&#10;&#9;&#9;c4.4,12.4-29.1-4.3-55.8-7.3c-9.9-1.1-18.2-0.3-21.3,4.4c-12.5,19,5.8,24.7,22.8,16.8c9.4-4.4,10.9-14.5,7-24.1&#10;&#9;&#9;c-3-7.3-8.7-15.8-17.8-20.4c-24.8-12.5,9.1-51.7,40-9.1" style="fill: none; stroke: rgb(251, 174, 24); stroke-width: 0.35;" transform="matrix(1, 0, 0, 1, 0, 1.4210854715202004e-14)"/><path class="st209" d="M164.1,143.2c-30-38.7,44.1,1.2,49.1,25.3c3.7,17.9-0.1,28-5.1,33.6c-9.1,10.3-30.1,7.8-25.3,20.2&#10;&#9;&#9;c4.6,11.8-27.7-5.1-54.1-8.4c-9.7-1.2-18-0.6-21.1,3.9c-12.6,18.2,4.8,23.8,20.9,16.3c9-4.2,10.1-13.9,6.1-23&#10;&#9;&#9;c-3.1-7-8.8-15.1-17.9-19.4c-24.9-11.9,7.3-49.8,36.8-9.1" style="fill: none; stroke: rgb(251, 172, 24); stroke-width: 0.35;" transform="matrix(1, 0, 0, 1, 0, 1.4210854715202004e-14)"/><path class="st210" d="M165.2,145c-29-37,42.7,2.8,47.7,26.8c3.7,17.7,0.1,27.7-4.4,33.2c-8.3,10.2-28.5,7.6-23.4,19.4&#10;&#9;&#9;c4.8,11.2-26.4-6-52.4-9.6c-9.6-1.3-17.7-0.8-20.9,3.5c-12.7,17.4,3.8,22.9,18.9,15.8c8.5-3.9,9.3-13.2,5.1-21.9&#10;&#9;&#9;c-3.2-6.6-8.9-14.4-17.9-18.5c-25-11.2,5.4-47.9,33.6-9.1" style="fill: none; stroke: rgb(251, 170, 25); stroke-width: 0.35;" transform="matrix(1, 0, 0, 1, 0, 1.4210854715202004e-14)"/><path class="st211" d="M166.3,146.9c-28-35.3,41.2,4.4,46.2,28.4c3.6,17.4,0.3,27.4-3.8,32.8c-7.5,10.1-26.8,7.5-21.5,18.6&#10;&#9;&#9;c5.1,10.6-25-6.9-50.7-10.8c-9.4-1.4-17.5-1-20.6,3.1c-12.8,16.5,2.8,22,17,15.3c8-3.7,8.5-12.6,4.2-20.8&#10;&#9;&#9;c-3.3-6.3-9.1-13.8-18-17.5c-25.2-10.6,3.6-46,30.4-9.1" style="fill: none; stroke: rgb(250, 167, 25); stroke-width: 0.35;" transform="matrix(1, 0, 0, 1, 0, 1.4210854715202004e-14)"/><path class="st212" d="M167.4,148.7c-27-33.5,39.7,6,44.7,29.9c3.6,17.2,0.6,27-3.1,32.5c-6.7,9.9-25.2,7.4-19.6,17.8&#10;&#9;&#9;c5.3,10-23.7-7.7-48.9-11.9c-9.2-1.5-17.2-1.3-20.4,2.6c-12.9,15.7,1.8,21,15.1,14.8c7.5-3.5,7.7-11.9,3.3-19.7&#10;&#9;&#9;c-3.4-5.9-9.2-13.1-18.1-16.6c-25.3-9.9,1.7-44.1,27.3-9.2" style="fill: none; stroke: rgb(250, 165, 26); stroke-width: 0.35;" transform="matrix(1, 0, 0, 1, 0, 1.4210854715202004e-14)"/><path class="st213" d="M168.6,150.5c-26-31.8,38.2,7.6,43.2,31.5c3.5,17,0.8,26.7-2.5,32.1c-6,9.8-23.5,7.3-17.8,17&#10;&#9;&#9;c5.6,9.4-22.3-8.6-47.2-13.1c-9.1-1.7-16.9-1.5-20.2,2.2c-13,14.9,0.8,20.1,13.1,14.2c7-3.3,6.9-11.3,2.4-18.6&#10;&#9;&#9;c-3.5-5.5-9.3-12.5-18.1-15.7c-25.4-9.3-0.1-42.2,24.1-9.2" style="fill: none; stroke: rgb(250, 163, 27); stroke-width: 0.35;" transform="matrix(1, 0, 0, 1, 0, 1.4210854715202004e-14)"/><path class="st214" d="M169.7,152.3c-25-30,36.7,9.2,41.7,33.1c3.5,16.7,1,26.4-1.8,31.7c-5.2,9.7-21.9,7.1-15.9,16.2&#10;&#9;&#9;c5.8,8.8-21-9.5-45.5-14.3c-8.9-1.8-16.7-1.8-20,1.8c-13,14.1-0.2,19.2,11.2,13.7c6.5-3.1,6.1-10.6,1.4-17.5&#10;&#9;&#9;c-3.6-5.2-9.4-11.8-18.2-14.7c-25.6-8.6-2-40.3,20.9-9.2" style="fill: none; stroke: rgb(249, 161, 27); stroke-width: 0.35;" transform="matrix(1, 0, 0, 1, 0, 1.4210854715202004e-14)"/><path class="st215" d="M170.8,154.1c-24-28.3,35.3,10.8,40.2,34.6c3.4,16.5,1.3,26-1.1,31.3c-4.4,9.5-20.2,7-14,15.4&#10;&#9;&#9;c6.1,8.3-19.6-10.3-43.7-15.5c-8.7-1.9-16.4-2-19.8,1.3c-13.1,13.3-1.2,18.3,9.3,13.2c6-2.9,5.3-10,0.5-16.4&#10;&#9;&#9;c-3.7-4.8-9.6-11.1-18.3-13.8c-25.7-7.9-3.8-38.4,17.7-9.2" style="fill: none; stroke: rgb(249, 159, 27); stroke-width: 0.35;" transform="matrix(1, 0, 0, 1, 0, 1.4210854715202004e-14)"/><path class="st216" d="M171.9,155.9c-23-26.6,33.8,12.4,38.7,36.2c3.4,16.2,1.5,25.7-0.5,30.9c-3.6,9.4-18.5,6.9-12.1,14.6&#10;&#9;&#9;c6.4,7.7-18.3-11.2-42-16.6c-8.6-2-16.2-2.3-19.5,0.9c-13.2,12.5-2.2,17.3,7.3,12.7c5.5-2.7,4.6-9.3-0.4-15.3&#10;&#9;&#9;c-3.7-4.5-9.7-10.5-18.3-12.9c-25.9-7.2-5.7-36.6,14.6-9.2" style="fill: none; stroke: rgb(249, 157, 28); stroke-width: 0.35;" transform="matrix(1, 0, 0, 1, 0, 1.4210854715202004e-14)"/><path class="st217" d="M173.1,157.8c-22.1-24.8,32.3,14,37.2,37.7c3.3,16,1.8,25.4,0.2,30.6c-2.8,9.2-16.8,6.8-10.3,13.8&#10;&#9;&#9;c6.7,7.1-16.9-12-40.3-17.8c-8.4-2.1-15.9-2.5-19.3,0.5c-13.2,11.7-3.2,16.4,5.4,12.2c5-2.5,3.8-8.7-1.3-14.2&#10;&#9;&#9;c-3.8-4.1-9.8-9.8-18.4-11.9c-26-6.6-7.5-34.7,11.4-9.2" style="fill: none; stroke: rgb(248, 155, 28); stroke-width: 0.35;" transform="matrix(1, 0, 0, 1, 0, 1.4210854715202004e-14)"/><path class="st218" d="M174.2,159.6c-21.1-23.1,30.8,15.6,35.7,39.3c3.3,15.8,2,25,0.8,30.2c-2.1,9-15.1,6.7-8.4,13&#10;&#9;&#9;c7,6.6-15.6-12.9-38.6-19c-8.3-2.2-15.6-2.8-19.1,0.1c-13.3,10.9-4.2,15.5,3.4,11.7c4.5-2.2,3-8-2.3-13.1c-3.9-3.8-10-9.1-18.5-11&#10;&#9;&#9;c-26.2-5.9-9.4-32.8,8.2-9.2" style="fill: none; stroke: rgb(248, 152, 29); stroke-width: 0.35;" transform="matrix(1, 0, 0, 1, 0, 1.4210854715202004e-14)"/><path class="st219" d="M175.3,161.4c-20.1-21.4,29.4,17.2,34.2,40.8c3.2,15.5,2.2,24.6,1.5,29.8c-1.3,8.8-13.3,6.6-6.5,12.2&#10;&#9;&#9;c7.3,6-14.2-13.7-36.8-20.1c-8.1-2.3-15.4-3-18.9-0.4c-13.3,10.1-5.2,14.6,1.5,11.2c4-2,2.2-7.4-3.2-11.9&#10;&#9;&#9;c-4-3.4-10.1-8.4-18.5-10.1c-26.3-5.2-11.2-30.9,5-9.2" style="fill: none; stroke: rgb(248, 150, 29); stroke-width: 0.35;" transform="matrix(1, 0, 0, 1, 0, 1.4210854715202004e-14)"/><path class="st220" d="M176.5,163.2c-19.1-19.6,27.9,18.8,32.7,42.4c3.2,15.3,2.5,24.3,2.1,29.4c-0.5,8.6-10.6,5.3-4.6,11.4&#10;&#9;&#9;c8.5,4-12.9-14.6-35.1-21.3c-7.9-2.4-15.1-3.3-18.7-0.8c-13.3,9.3-6.2,13.7-0.4,10.7c3.5-1.8,1.4-6.7-4.1-10.8&#10;&#9;&#9;c-4.1-3.1-10.2-7.7-18.6-9.1c-26.5-4.4-13.1-29,1.9-9.2" style="fill: none; stroke: rgb(248, 148, 29); stroke-width: 0.35;" transform="matrix(1, 0, 0, 1, 0, 1.4210854715202004e-14)"/><path class="st221" d="M177.6,165c-18.1-17.9,26.4,20.4,31.3,43.9c3.1,15,2.7,23.9,2.8,29.1c0.2,8.4-8.9,5.1-2.8,10.6&#10;&#9;&#9;c8.8,3.3-11.5-15.5-33.4-22.5c-7.8-2.5-14.8-3.5-18.4-1.2c-13.3,8.5-7.2,12.7-2.4,10.1c3-1.6,0.7-6.1-5-9.7&#10;&#9;&#9;c-4.2-2.7-10.4-7.1-18.7-8.2c-26.7-3.7-14.9-27.1-1.3-9.2" style="fill: none; stroke: rgb(247, 146, 30); stroke-width: 0.35;" transform="matrix(1, 0, 0, 1, 0, 1.4210854715202004e-14)"/><path class="st222" d="M178.7,166.9c-17.1-16.1,24.9,22,29.8,45.5c3.1,14.8,2.9,23.5,3.4,28.7c0.9,8.2-7.2,4.9-0.9,9.8&#10;&#9;&#9;c9.1,2.6-10.2-16.3-31.6-23.6c-7.6-2.6-14.6-3.8-18.2-1.7c-13.4,7.7-8.2,11.8-4.3,9.6c2.5-1.4-0.1-5.4-6-8.6&#10;&#9;&#9;c-4.3-2.4-10.5-6.4-18.7-7.3c-26.8-3-16.8-25.2-4.5-9.2" style="fill: none; stroke: rgb(247, 144, 30); stroke-width: 0.35;" transform="matrix(1, 0, 0, 1, 0, 1.4210854715202004e-14)"/><path class="st223" d="M179.8,168.7c-16.1-14.4,23.4,23.6,28.3,47c3,14.6,3.1,23.2,4.1,28.3c1.6,8-5.5,4.7,1,9&#10;&#9;&#9;c9.3,2-8.8-17.2-29.9-24.8c-7.4-2.7-14.3-4-18-2.1c-13.4,6.9-9.2,10.9-6.2,9.1c2-1.2-0.9-4.8-6.9-7.5c-4.4-2-10.6-5.7-18.8-6.3&#10;&#9;&#9;c-27-2.2-18.6-23.3-7.7-9.2" style="fill: none; stroke: rgb(247, 142, 30); stroke-width: 0.35;" transform="matrix(1, 0, 0, 1, 0, 1.4210854715202004e-14)"/><path class="st224" d="M181,170.5c-15.1-12.7,22,25.2,26.8,48.6c3,14.3,3.3,22.8,4.8,27.9c2.3,7.8-3.9,4.5,2.9,8.2&#10;&#9;&#9;c9.6,1.3-7.5-18-28.2-26c-7.3-2.8-14-4.3-17.8-2.5c-13.3,6.1-10.2,10-8.2,8.6c1.5-1-1.7-4.1-7.8-6.4c-4.4-1.7-10.8-5-18.9-5.4&#10;&#9;&#9;c-27.2-1.5-20.5-21.4-10.8-9.2" style="fill: none; stroke: rgb(247, 140, 31); stroke-width: 0.35;" transform="matrix(1, 0, 0, 1, 0, 1.4210854715202004e-14)"/><path class="st225" d="M182.1,172.3c-14.1-10.9,20.5,26.8,25.3,50.2c2.9,14.1,3.4,22.4,5.4,27.6c2.9,7.6-2.2,4.3,4.7,7.4&#10;&#9;&#9;c9.9,0.6-6.1-18.8-26.4-27.2c-7.1-2.9-13.7-4.5-17.6-3c-13.3,5.3-11.2,9-10.1,8.1c1-0.8-2.4-3.5-8.7-5.3&#10;&#9;&#9;c-4.5-1.3-10.9-4.3-18.9-4.5c-27.4-0.7-22.4-19.5-14-9.3" style="fill: none; stroke: rgb(246, 138, 31); stroke-width: 0.35;" transform="matrix(1, 0, 0, 1, 0, 1.4210854715202004e-14)"/><path class="st226" d="M183.2,174.1c-13.1-9.2,19,28.4,23.8,51.7c2.9,13.8,3.6,22.1,6.1,27.2c3.6,7.4-0.8,7.9,6.6,6.6&#10;&#9;&#9;c10-1.8-4.8-19.7-24.7-28.3c-6.9-3-13.4-4.7-17.3-3.4c-13.3,4.6-12.2,8.2-12,7.6c0.5-0.5-3.2-2.8-9.7-4.2c-4.6-1-11.1-3.6-19-3.5&#10;&#9;&#9;c-27.5,0.1-24.2-17.6-17.2-9.3" style="fill: none; stroke: rgb(246, 136, 31); stroke-width: 0.35;" transform="matrix(1, 0, 0, 1, 0, 1.4210854715202004e-14)"/><path class="st227" d="M184.3,176c-12.1-7.5,17.5,30,22.3,53.3c2.8,13.6,3.8,21.8,6.7,26.8c4.2,7.2,1.1,7.5,8.5,5.8&#10;&#9;&#9;c10.2-2.4-3.5-20.5-23-29.5c-6.8-3.1-13.2-5-17.1-3.8c-13.3,3.9-13.2,7.3-14,7.1c0-0.3-4-2.2-10.6-3.1c-4.7-0.6-11.2-2.9-19.1-2.6&#10;&#9;&#9;c-27.7,0.9-26.1-15.7-20.4-9.3" style="fill: none; stroke: rgb(246, 134, 31); stroke-width: 0.35;" transform="matrix(1, 0, 0, 1, 0, 1.4210854715202004e-14)"/><path class="st228" d="M185.5,177.8c-11.1-5.7,16,31.6,20.8,54.8c2.8,13.4,3.9,21.4,7.4,26.4c4.9,7.1,3.1,7.1,10.4,5&#10;&#9;&#9;c10.4-3-2.1-21.4-21.3-30.7c-6.6-3.2-12.9-5.2-16.9-4.2c-13.3,3.1-14.1,6.6-15.9,6.6c-0.5,0-4.7-1.6-11.5-2&#10;&#9;&#9;c-4.8-0.3-11.3-2.1-19.1-1.7c-27.8,1.7-27.9-13.8-23.6-9.3" style="fill: none; stroke: rgb(245, 132, 31); stroke-width: 0.35;" transform="matrix(1, 0, 0, 1, 0, 1.4210854715202004e-14)"/><path class="st229" d="M186.6,179.6c-10.1-4,14.6,33.2,19.3,56.4c2.7,13.1,4.1,21.1,8,26c5.6,6.9,4.9,6.7,12.2,4.2&#10;&#9;&#9;c10.6-3.6-0.8-22.2-19.5-31.8c-6.4-3.3-12.6-5.4-16.7-4.7c-13.3,2.4-15.1,5.6-17.9,6c-1,0.2-5.5-0.9-12.4-0.9&#10;&#9;&#9;c-4.8,0-11.5-1.4-19.2-0.7c-28,2.5-29.8-11.9-26.7-9.3" style="fill: none; stroke: rgb(245, 130, 32); stroke-width: 0.35;" transform="matrix(1, 0, 0, 1, 0, 1.4210854715202004e-14)"/><path class="st230" d="M187.7,181.4c-9.1-2.2,13.1,34.8,17.8,57.9c2.7,12.9,4.2,20.8,8.7,25.7c6.2,6.8,6.7,6.2,14.1,3.4&#10;&#9;&#9;c10.8-4.2,0.6-23-17.8-33c-6.3-3.4-12.3-5.6-16.5-5.1c-13.2,1.7-16.1,4.6-19.8,5.5c-1.4,0.4-6.3-0.3-13.4,0.2&#10;&#9;&#9;c-4.9,0.4-11.6-0.7-19.3,0.2c-28.1,3.3-31.6-10-29.9-9.3" style="fill: none; stroke: rgb(245, 128, 32); stroke-width: 0.35;" transform="matrix(1, 0, 0, 1, 0, 1.4210854715202004e-14)"/><path class="st231" d="M188.9,183.2c-8.1-0.5,11.6,36.4,16.4,59.5c2.6,12.6,4.4,20.5,9.3,25.3c6.9,6.7,8,4,16,2.6&#10;&#9;&#9;c11.8-2.1,1.9-23.9-16.1-34.2c-6.1-3.5-12-5.9-16.3-5.5c-13.2,1-17.1,3.7-21.7,5c-1.9,0.6-7.1,0.3-14.3,1.3c-5,0.7-11.7,0-19.3,1.1&#10;&#9;&#9;c-28.3,4.2-33.5-8.1-33.1-9.3" style="fill: none; stroke: rgb(245, 126, 32); stroke-width: 0.35;" transform="matrix(1, 0, 0, 1, 0, 1.4210854715202004e-14)"/><path class="st232" d="M190,185.1c-7.1,1.2,10.1,38,14.9,61c2.6,12.4,4.6,20.2,10,24.9c7.5,6.6,9.7,3.7,17.9,1.8&#10;&#9;&#9;c12.1-2.9,3.3-24.7-14.3-35.3c-5.9-3.6-11.7-6.1-16-6c-13.2,0.3-18.1,2.7-23.7,4.5c-2.4,0.8-7.8,0.9-15.2,2.5&#10;&#9;&#9;c-5.1,1-11.8,0.7-19.4,2.1c-28.4,5-35.3-6.2-36.3-9.3" style="fill: none; stroke: rgb(244, 123, 32); stroke-width: 0.35;" transform="matrix(1, 0, 0, 1, 0, 1.4210854715202004e-14)"/><path class="st233" d="M191.1,186.9c-6.1,3,8.7,39.6,13.4,62.6c2.5,12.2,4.7,19.9,10.7,24.5c8.2,6.5,11.4,3.5,19.7,1&#10;&#9;&#9;c12.4-3.7,4.6-25.5-12.6-36.5c-5.8-3.7-11.5-6.3-15.8-6.4c-13.2-0.4-19.1,1.8-25.6,4c-2.9,1-8.6,1.6-16.1,3.6&#10;&#9;&#9;c-5.2,1.4-12,1.4-19.5,3c-28.5,5.9-37.2-4.3-39.4-9.3" style="fill: none; stroke: rgb(244, 121, 32); stroke-width: 0.35;" transform="matrix(1, 0, 0, 1, 0, 1.4210854715202004e-14)"/><path class="st234" d="M192.2,188.7c-5.1,4.7,7.2,41.2,11.9,64.1c2.5,11.9,4.9,19.6,11.3,24.2c8.9,6.4,13.1,3.2,21.6,0.2&#10;&#9;&#9;c12.7-4.5,5.9-26.4-10.9-37.7c-5.6-3.8-11.2-6.5-15.6-6.8c-13.2-1-20.1,0.9-27.5,3.5c-3.4,1.2-9.4,2.2-17,4.7&#10;&#9;&#9;c-5.3,1.7-12.1,2.2-19.5,3.9c-28.6,6.8-39-2.4-42.6-9.3" style="fill: none; stroke: rgb(244, 119, 33); stroke-width: 0.35;" transform="matrix(1, 0, 0, 1, 0, 1.4210854715202004e-14)"/><path class="st235" d="M193.4,190.5c-4.1,6.4,5.7,42.8,10.4,65.7c2.4,11.7,5.1,19.3,12,23.8c9.6,6.3,14.8,2.9,23.5-0.6&#10;&#9;&#9;c13-5.3,7.3-27.2-9.2-38.8c-5.5-3.9-10.9-6.7-15.4-7.3c-13.3-1.7-21.1,0-29.5,3c-3.9,1.4-10.2,2.8-18,5.8c-5.4,2-12.2,2.9-19.6,4.9&#10;&#9;&#9;c-28.7,7.7-40.9-0.5-45.8-9.3" style="fill: none; stroke: rgb(244, 117, 33); stroke-width: 0.35;" transform="matrix(1, 0, 0, 1, 0, 1.4210854715202004e-14)"/><path class="st236" d="M194.5,192.3c-3.1,8.2,4.2,44.4,8.9,67.3c2.4,11.4,5.3,19,12.6,23.4c10.3,6.2,16.5,2.6,25.4-1.4&#10;&#9;&#9;c13.2-6.1,8.6-28-7.4-40c-5.3-4-10.7-6.9-15.2-7.7c-13.3-2.4-22.1-1-31.4,2.4c-4.4,1.6-11,3.4-18.9,6.9c-5.5,2.4-12.3,3.6-19.6,5.8&#10;&#9;&#9;c-28.8,8.6-42.7,1.4-49-9.3" style="fill: none; stroke: rgb(243, 115, 33); stroke-width: 0.35;" transform="matrix(1, 0, 0, 1, 0, 1.4210854715202004e-14)"/><path class="st237" d="M195.6,194.1c-2.1,9.9,2.7,46,7.4,68.8c2.3,11.2,5.5,18.7,13.3,23c11,6.1,18.2,2.4,27.2-2.2&#10;&#9;&#9;c13.5-6.9,9.9-28.9-5.7-41.2c-5.1-4.1-10.4-7.1-14.9-8.1c-13.3-3-23.1-1.9-33.3,1.9c-4.9,1.8-11.8,4.1-19.8,8&#10;&#9;&#9;c-5.6,2.7-12.4,4.3-19.7,6.7c-28.9,9.5-44.6,3.3-52.1-9.4" style="fill: none; stroke: rgb(243, 113, 33); stroke-width: 0.35;" transform="matrix(1, 0, 0, 1, 0, 1.4210854715202004e-14)"/><path class="st238" d="M196.7,196c-1.1,11.7,1.3,47.6,5.9,70.4c2.2,11,5.7,18.4,13.9,22.7c11.7,6,19.9,2.1,29.1-3&#10;&#9;&#9;c13.7-7.6,11.3-29.7-4-42.4c-5-4.2-10.1-7.3-14.7-8.6c-13.4-3.7-24.1-2.8-35.3,1.4c-5.4,2.1-12.6,4.7-20.7,9.1&#10;&#9;&#9;c-5.7,3.1-12.5,5.1-19.8,7.7c-29,10.4-46.4,5.2-55.3-9.4" style="fill: none; stroke: rgb(243, 110, 33); stroke-width: 0.35;" transform="matrix(1, 0, 0, 1, 0, 1.4210854715202004e-14)"/><path class="st239" d="M197.9,197.8c-0.1,13.4-0.2,49.2,4.4,71.9c2.2,10.7,5.8,18.1,14.6,22.3c12.4,5.9,21.5,1.9,31-3.8&#10;&#9;&#9;c14-8.4,12.6-30.5-2.2-43.5c-4.8-4.2-9.9-7.5-14.5-9c-13.4-4.3-25.1-3.7-37.2,0.9c-5.9,2.3-13.3,5.3-21.7,10.2&#10;&#9;&#9;c-5.8,3.4-12.6,5.8-19.8,8.6c-29,11.3-48.3,7-58.5-9.4" style="fill: none; stroke: rgb(243, 108, 33); stroke-width: 0.35;" transform="matrix(1, 0, 0, 1, 0, 1.4210854715202004e-14)"/><path class="st240" d="M199,199.6c0.8,15.1-1.7,50.8,2.9,73.5c2.1,10.5,6,17.8,15.2,21.9c13.1,5.8,23.2,1.6,32.9-4.6&#10;&#9;&#9;c14.2-9.1,13.9-31.3-0.5-44.7c-4.7-4.3-9.6-7.7-14.3-9.4c-13.5-5-26.1-4.7-39.2,0.4c-6.4,2.5-14.1,5.9-22.6,11.3&#10;&#9;&#9;c-5.9,3.7-12.7,6.5-19.9,9.5c-29.1,12.2-50.2,8.9-61.7-9.4" style="fill: none; stroke: rgb(242, 105, 34); stroke-width: 0.35;" transform="matrix(1, 0, 0, 1, 0, 1.4210854715202004e-14)"/><path class="st241" d="M200.1,201.4c1.8,16.9-3.2,52.4,1.4,75c2.1,10.2,6.2,17.5,15.9,21.5c13.8,5.7,24.9,1.4,34.8-5.4&#10;&#9;&#9;c14.4-9.9,15.2-32.1,1.2-45.9c-4.5-4.4-9.4-7.9-14.1-9.8c-13.6-5.7-27.1-5.6-41.1-0.1c-6.9,2.7-14.9,6.6-23.5,12.4&#10;&#9;&#9;c-6,4.1-12.8,7.3-20,10.5c-29.1,13.1-52,10.8-64.8-9.4" style="fill: none; stroke: rgb(242, 103, 34); stroke-width: 0.35;" transform="matrix(1, 0, 0, 1, 0, 1.4210854715202004e-14)"/><path class="st242" d="M201.2,203.2c2.8,18.6-4.6,54,0,76.6c2,10,6.4,17.2,16.6,21.1c14.5,5.6,26.5,1.1,36.6-6.2&#10;&#9;&#9;c14.7-10.6,16.5-33,2.9-47c-4.4-4.5-9.1-8.1-13.8-10.3c-13.7-6.3-28.1-6.5-43-0.6c-7.4,2.9-15.7,7.2-24.4,13.5&#10;&#9;&#9;c-6.1,4.4-12.9,8-20,11.4c-29.1,14-53.9,12.7-68-9.4" style="fill: none; stroke: rgb(242, 100, 34); stroke-width: 0.35;" transform="matrix(1, 0, 0, 1, 0, 1.4210854715202004e-14)"/><path class="st243" d="M202.4,205.1c3.8,20.3-6.1,55.6-1.5,78.1c2,9.8,6.6,16.9,17.2,20.8c15.2,5.5,28.2,0.9,38.5-7&#10;&#9;&#9;c14.9-11.4,17.8-33.8,4.7-48.2c-4.2-4.6-8.9-8.3-13.6-10.7c-13.8-7-29.1-7.4-45-1.1c-7.9,3.1-16.5,7.8-25.4,14.6&#10;&#9;&#9;c-6.2,4.7-13,8.7-20.1,12.3c-29.2,14.9-55.7,14.6-71.2-9.4" style="fill: none; stroke: rgb(242, 98, 34); stroke-width: 0.35;" transform="matrix(1, 0, 0, 1, 0, 1.4210854715202004e-14)"/><path class="st244" d="M203.5,206.9c4.8,22.1-7.6,57.2-3,79.7c1.9,9.5,6.8,16.6,17.9,20.4c16,5.4,29.8,0.6,40.4-7.8&#10;&#9;&#9;c15.1-12.1,19.1-34.6,6.4-49.4c-4.1-4.7-8.6-8.5-13.4-11.1c-13.9-7.7-30.1-8.3-46.9-1.7c-8.4,3.3-17.3,8.4-26.3,15.7&#10;&#9;&#9;c-6.3,5.1-13.1,9.4-20.2,13.3c-29.2,15.9-57.6,16.5-74.4-9.4" style="fill: none; stroke: rgb(241, 95, 34); stroke-width: 0.35;" transform="matrix(1, 0, 0, 1, 0, 1.4210854715202004e-14)"/><path class="st245" d="M204.6,208.7c5.8,23.8-9.1,58.8-4.5,81.2c1.9,9.3,7,16.4,18.5,20c16.7,5.4,31.5,0.4,42.3-8.6&#10;&#9;&#9;c15.4-12.8,20.4-35.4,8.1-50.5c-3.9-4.8-8.4-8.7-13.2-11.6c-14-8.3-31.1-9.2-48.8-2.2c-8.9,3.6-18.1,9.1-27.2,16.9&#10;&#9;&#9;c-6.4,5.4-13.2,10.2-20.2,14.2c-29.2,16.8-59.4,18.4-77.5-9.4" style="fill: none; stroke: rgb(241, 93, 34); stroke-width: 0.35;" transform="matrix(1, 0, 0, 1, 0, 1.4210854715202004e-14)"/><path class="st246" d="M205.8,210.5c9.6,35.9-28.5,89.9,13.2,102.4c42,12.6,74.3-34.7,54-61.1c-20.3-26.4-58-26.9-91.9,3.3&#10;&#9;&#9;c-33.3,29.7-76.9,42.6-101,5.7" style="fill: none; stroke: rgb(241, 90, 34); stroke-width: 0.35;" transform="matrix(1, 0, 0, 1, 0, 1.4210854715202004e-14)"/></g></svg>